<svg id="Capa_1" enable-background="new 0 0 512.013 512.013" height="512" viewBox="0 0 512.013 512.013" width="512" xmlns="http://www.w3.org/2000/svg"><g><g fill="#5b362a"><path d="m12.062 420.711c-8.115-1.626-13.389-9.521-11.763-17.651l30-150c1.128-5.684 5.449-10.195 11.074-11.602l91.234-23.559c8.042-2.095 16.172 3.856 18.179 11.913 2.021 8.027-2.871 16.172-10.913 18.179l-82.02 20.259-28.14 140.698c-1.64 8.236-9.701 13.399-17.651 11.763z"/><path d="m121.299 499.948-30-151c-1.216-6.094 1.436-12.305 6.694-15.63l61.553-38.892c7.031-4.409 16.289-2.314 20.698 4.673 4.424 7.002 2.329 16.274-4.673 20.698l-52.837 33.384 27.979 140.878c1.626 8.13-3.647 16.025-11.763 17.651-7.945 1.637-16.009-3.522-17.651-11.762z"/><path d="m4.401 205.609c-5.859-5.859-5.859-15.352 0-21.211l60-60c4.585-4.614 12.528-5.713 18.314-2.813l72.642 36.328c7.412 3.706 10.415 12.715 6.709 20.127-3.721 7.412-12.7 10.386-20.127 6.709l-62.974-31.494-53.354 52.354c-5.858 5.859-15.35 5.86-21.21 0z"/><path d="m180.801 132.528-77.915-97.412-79.56 52.368c-6.914 4.585-16.216 2.71-20.801-4.16-4.6-6.899-2.739-16.201 4.16-20.801l91-60c6.504-4.336 15.161-2.944 20.039 3.105l86.514 108.149c5.171 6.475 4.116 15.908-2.344 21.094-6.449 5.154-15.872 4.138-21.093-2.343z"/></g><path d="m373.062 511.711c-8.115-1.626-13.389-9.521-11.763-17.651l27.979-140.878-52.837-33.384c-7.002-4.424-9.097-13.696-4.673-20.698 4.424-6.987 13.682-9.082 20.698-4.673l61.553 38.892c5.259 3.325 7.91 9.536 6.694 15.63l-30 151c-1.64 8.235-9.701 13.398-17.651 11.762z" fill="#38211a"/><path d="m482.299 408.948-29.139-140.698-81.021-20.259c-8.042-2.007-12.935-10.151-10.913-18.179 1.992-8.057 10.078-14.022 18.179-11.913l91.234 23.559c5.625 1.406 9.946 5.918 11.074 11.602l30 150c1.626 8.13-3.647 16.025-11.763 17.651-7.945 1.636-16.009-3.523-17.651-11.763z" fill="#38211a"/><path d="m486.401 205.609-53.354-52.354-62.974 31.494c-7.412 3.677-16.421.703-20.127-6.709s-.703-16.421 6.709-20.127l72.642-36.328c5.742-2.856 12.729-1.772 17.314 2.813l61 60c5.859 5.859 5.859 15.352 0 21.211-5.858 5.859-15.35 5.86-21.21 0z" fill="#38211a"/><path d="m310.118 134.872c-6.46-5.186-7.515-14.619-2.344-21.094l86.514-108.149c4.878-6.05 13.55-7.441 20.039-3.105l91 60c6.899 4.6 8.76 13.901 4.16 20.801-4.6 6.87-13.916 8.745-20.801 4.16l-79.56-52.368-77.915 97.412c-5.221 6.481-14.645 7.494-21.093 2.343z" fill="#38211a"/><path d="m256.006.004c-8.291 0-15 6.709-15 15v90c0 8.291 6.709 15 15 15s15-6.709 15-15v-90c0-8.291-6.709-15-15-15z" fill="#fff5f5"/><path d="m271.006 105.004v-90c0-8.291-6.709-15-15-15v120c8.291 0 15-6.709 15-15z" fill="#efe2dd"/><path d="m256.006 90.004c-74.559 0-135 61.441-135 136s60.441 135 135 135 135-60.441 135-135-60.441-136-135-136z" fill="#704c55"/><path d="m391.006 226.004c0-74.559-60.441-136-135-136v271c74.559 0 135-60.442 135-135z" fill="#5b362a"/><path d="m226.006 421.004c-8.291 0-15-6.709-15-15v-17.578c0-7.471.718-14.956 2.139-22.28 1.567-8.101 9.36-13.491 17.578-11.865 8.13 1.567 13.447 9.434 11.865 17.578-1.04 5.42-1.582 10.972-1.582 16.567v17.578c0 8.291-6.709 15-15 15z" fill="#704c55"/><path d="m286.006 421.004c-8.291 0-15-6.709-15-15v-17.578c0-5.596-.542-11.147-1.582-16.567-1.582-8.145 3.735-16.011 11.865-17.578 8.218-1.743 16.011 3.735 17.578 11.865 1.421 7.324 2.139 14.81 2.139 22.28v17.578c0 8.291-6.709 15-15 15z" fill="#5b362a"/><circle cx="256.006" cy="316.004" fill="#ff641a" r="75"/><path d="m331.006 316.004c0-41.353-33.647-75-75-75v150c41.353 0 75-33.648 75-75z" fill="#f03800"/></g></svg>