<svg id="Layer_1" enable-background="new 0 0 512 512" height="512" viewBox="0 0 512 512" width="512" xmlns="http://www.w3.org/2000/svg"><g><path d="m384.534 512h-24.1c-55.939 0-103.367-45.091-103.367-103.367v-24.1c0-8.284 6.716-15 15-15h24.1c55.568 0 103.367 44.963 103.367 103.367v24.1c0 8.284-6.716 15-15 15z" fill="#beff69"/><path d="m408.634 479.867h-24.1c-8.284 0-15-6.716-15-15v-24.1c0-58.144 47.296-103.367 103.367-103.367h24.099c8.284 0 15 6.716 15 15v24.1c0 58.298-47.69 103.367-103.366 103.367z" fill="#49b867"/><path d="m184.359 50.042c-.003-.003-45.639-45.647-45.639-45.647-5.854-5.856-15.347-5.86-21.206-.01l-45.709 45.637c-31.076 31.076-31.076 81.459 0 112.535s81.459 31.075 112.535 0c31.069-31.069 31.075-81.437.019-112.515z" fill="#f00032"/><path d="m138.72 4.395c-2.953-2.954-6.832-4.415-10.703-4.39v185.858c20.383.014 40.771-7.753 56.323-23.305 31.069-31.069 31.075-81.438.019-112.515-.003-.004-45.639-45.648-45.639-45.648z" fill="#c80046"/><path d="m127.467 423.633h-24.1c-55.94 0-103.367-45.091-103.367-103.366v-24.1c0-8.284 6.716-15 15-15h24.1c55.568 0 103.367 44.963 103.367 103.367v24.1c0 8.283-6.716 14.999-15 14.999z" fill="#beff69"/><path d="m151.567 391.5h-24.1c-8.284 0-15-6.716-15-15v-24.1c0-58.144 47.296-103.367 103.367-103.367h24.1c8.284 0 15 6.716 15 15v24.1c-.001 58.299-47.691 103.367-103.367 103.367z" fill="#49b867"/><path d="m127.467 512c-8.284 0-15-6.716-15-15v-273.133c0-8.284 6.716-15 15-15s15 6.716 15 15v273.133c0 8.284-6.716 15-15 15z" fill="#84dc68"/><path d="m384.533 512c-8.284 0-15-6.716-15-15v-208.867c0-8.284 6.716-15 15-15s15 6.716 15 15v208.867c0 8.284-6.716 15-15 15z" fill="#84dc68"/><path d="m128.073 238.867c-61.587 0-111.4-49.741-111.4-111.4v-80.334c0-8.284 6.716-15 15-15 41.076 0 77.029 22.344 96.344 55.519 18.194-31.318 53.095-55.519 96.376-55.519 8.284 0 15.08 6.716 15.08 15v80.333c-.001 60.569-49.043 111.401-111.4 111.401z" fill="#ff4864"/><path d="m128.073 238.867-.056-151.215c18.194-31.318 53.095-55.519 96.376-55.519 8.284 0 15.08 6.716 15.08 15v80.333c-.001 60.569-49.043 111.401-111.4 111.401z" fill="#f00032"/><path d="m440.82 114.309c-.003-.003-45.639-45.647-45.639-45.647-5.854-5.856-15.347-5.86-21.206-.01l-45.709 45.637c-31.076 31.076-31.076 81.459 0 112.535s81.459 31.075 112.535 0c31.069-31.069 31.075-81.438.019-112.515z" fill="#f00032"/><path d="m395.181 68.662c-2.953-2.954-6.832-4.415-10.703-4.39v185.858c20.383.014 40.771-7.753 56.323-23.305 31.069-31.069 31.075-81.438.019-112.515-.004-.004-45.639-45.648-45.639-45.648z" fill="#c80046"/><path d="m384.533 303.133c-61.587 0-111.4-49.741-111.4-111.4v-80.333c0-8.284 6.716-15 15-15 41.076 0 77.029 22.344 96.344 55.519 18.194-31.318 53.095-55.519 96.376-55.519 8.284 0 15.08 6.716 15.08 15v80.333c0 60.568-49.042 111.4-111.4 111.4z" fill="#ff4864"/><path d="m384.533 303.133-.056-151.215c18.194-31.318 53.095-55.519 96.376-55.519 8.284 0 15.08 6.716 15.08 15v80.333c0 60.569-49.042 111.401-111.4 111.401z" fill="#f00032"/></g></svg>