<svg id="Capa_1" enable-background="new 0 0 512.001 512.001" height="512" viewBox="0 0 512.001 512.001" width="512" xmlns="http://www.w3.org/2000/svg"><circle cx="255.47" cy="103.695" fill="#6f6571" r="48.097"/><path d="m255.47 95.678c-70.835 0-122.969 57.423-122.969 128.258l-5.289 152.307c0 70.835 57.423 128.258 128.258 128.258s128.258-57.423 128.258-128.258v-152.307c0-70.835-57.423-128.258-128.258-128.258z" fill="#aedb81"/><path d="m279.518 488.469c-70.835 0-128.258-57.423-128.258-128.258v-210.852c-15.077 21.028-24.048 46.729-24.048 74.577v152.307c0 70.835 57.423 128.258 128.258 128.258 31.548 0 60.393-11.438 82.732-30.331-17.598 9.081-37.516 14.299-58.684 14.299z" fill="#95cc81"/><path d="m255.47 95.678c-70.835 0-128.258 57.423-128.258 128.258h256.516c0-70.835-57.423-128.258-128.258-128.258z" fill="#5d5360"/><path d="m151.26 223.937v-74.578c-15.077 21.028-24.048 46.729-24.048 74.577h24.048z" fill="#4b3f4e"/><path d="m215.389 223.937c0 22.136 17.944 40.081 40.081 40.081s40.081-17.945 40.081-40.081z" fill="#4b3f4e"/><path d="m488.999 88.178h-22.987c-8.218 0-15.95 4.378-20.179 11.425l-38.756 64.594c-1.533 2.555-4.337 4.143-7.316 4.143h-20.446c-13.647-30.281-38.083-54.69-68.381-68.306-1.141-17.449-10.36-32.723-23.952-42.11l30.843-46.263c2.298-3.446 1.367-8.103-2.08-10.4-3.447-2.298-8.103-1.367-10.4 2.08l-31.849 47.772c-5.657-1.945-11.716-3.016-18.024-3.016s-12.368 1.071-18.024 3.016l-31.851-47.772c-2.297-3.447-6.955-4.377-10.4-2.08-3.447 2.297-4.378 6.954-2.08 10.4l30.842 46.263c-13.592 9.387-22.811 24.661-23.952 42.11-30.298 13.616-54.734 38.026-68.381 68.306h-19.385c-2.979 0-5.783-1.587-7.316-4.143l-38.757-64.594c-4.229-7.047-11.961-11.425-20.179-11.425h-22.987c-4.142 0-7.5 3.358-7.5 7.5s3.358 7.5 7.5 7.5h22.987c2.979 0 5.783 1.587 7.316 4.143l38.756 64.594c4.229 7.047 11.961 11.425 20.179 11.425h13.673c-4.027 12.824-6.202 26.461-6.202 40.597v28.552l-38.709 32.258c-2.968 2.473-6.73 3.835-10.594 3.835h-39.39c-4.142 0-7.5 3.358-7.5 7.5s3.358 7.5 7.5 7.5h39.39c7.366 0 14.539-2.597 20.197-7.312l29.107-24.256v32.084c0 4.142 3.358 7.5 7.5 7.5s7.5-3.358 7.5-7.5v-72.662h73.774c3.219 20.24 19.244 36.265 39.485 39.484v225.841c-63.105-3.886-113.258-56.451-113.258-120.518v-40.079c0-4.142-3.358-7.5-7.5-7.5s-7.5 3.358-7.5 7.5v16.546h-10.413c-11.844 0-21.882 8.862-23.35 20.614l-4.803 38.425c-.775 6.2-3.3 12.016-7.3 16.817l-32.558 39.069c-2.652 3.182-2.222 7.911.96 10.563 1.402 1.168 3.104 1.739 4.797 1.738 2.148 0 4.282-.919 5.766-2.699l32.558-39.069c5.843-7.012 9.529-15.504 10.661-24.559l4.803-38.425c.533-4.261 4.172-7.474 8.466-7.474h10.412v8.533c0 74.857 60.901 135.758 135.758 135.758s135.758-60.901 135.758-135.758v-8.533h11.473c4.294 0 7.934 3.213 8.466 7.474l4.803 38.425c1.132 9.055 4.818 17.547 10.661 24.559l32.558 39.069c1.483 1.78 3.617 2.699 5.766 2.699 1.693 0 3.396-.57 4.797-1.738 3.182-2.652 3.612-7.381.96-10.563l-32.558-39.069c-4-4.801-6.525-10.617-7.3-16.817l-4.803-38.424c-1.469-11.752-11.507-20.614-23.351-20.614h-11.473v-81.581l30.168 25.14c5.658 4.715 12.831 7.312 20.197 7.312h39.39c4.142 0 7.5-3.358 7.5-7.5s-3.358-7.5-7.5-7.5h-39.39c-3.864 0-7.626-1.362-10.594-3.835l-39.771-33.142v-27.667c0-14.136-2.175-27.772-6.202-40.597h14.734c8.218 0 15.95-4.378 20.179-11.425l38.756-64.594c1.533-2.555 4.337-4.143 7.316-4.143h22.987c4.142 0 7.5-3.358 7.5-7.5s-3.356-7.501-7.498-7.501zm-233.529-25.08c19.052 0 35.073 13.195 39.424 30.925-12.482-3.795-25.717-5.845-39.424-5.845-13.706 0-26.941 2.049-39.423 5.845 4.35-17.73 20.37-30.925 39.423-30.925zm-31.7 168.339h63.399c-3.398 14.36-16.316 25.081-31.7 25.081-15.383-.001-28.301-10.721-31.699-25.081zm39.2 265.324v-225.84c20.24-3.219 36.265-19.244 39.484-39.484h25.161c4.142 0 7.5-3.358 7.5-7.5s-3.358-7.5-7.5-7.5h-192.663c3.887-63.106 56.451-113.258 120.519-113.258 64.067 0 116.631 50.153 120.518 113.258h-16.309c-4.142 0-7.5 3.358-7.5 7.5s3.358 7.5 7.5 7.5h16.548v144.807c0 64.066-50.152 116.63-113.258 120.517z"/></svg>