<svg id="Layer_1" enable-background="new 0 0 480.011 480.011" height="512" viewBox="0 0 480.011 480.011" width="512" xmlns="http://www.w3.org/2000/svg"><path d="m313.351 83.384h-32.54v-18.77c0-17.68-14.33-32-32-32h-17.62c-17.67 0-32 14.32-32 32v18.77h-32.54c-33.052 0-59.76 26.815-59.76 59.76v122.12c0 80.96 48.14 154.16 122.48 186.24 3.041 1.307 5.946 2.79 10.63 2.79s7.588-1.483 10.63-2.79c74.34-32.08 122.48-105.28 122.48-186.24v-122.12c0-32.925-26.69-59.76-59.76-59.76z" fill="#42434d"/><path d="m317.264 83.51c-2.788-.18 3.516-.126-98.053-.126.623-16.398 13.809-30.77 32.523-30.77 12.183-.006 13.636-17.991 1.572-19.687-2.921-.411-2.874-.313-22.115-.313-17.67 0-32 14.32-32 32v18.77h-32.54c-33.07 0-59.76 26.834-59.76 59.76v122.12c0 73.54 39.72 140.68 102.72 176.41-33.27-36.62-52.72-84.95-52.72-136.41v-122.12c0-32.945 26.708-59.76 59.76-59.76 45.363 0 76.941-.013 99.014-.019 25.56-.006 27.105-38.209 1.599-39.855z" fill="#4d4e59"/><path d="m373.111 178.884v86.38c0 80.959-48.144 154.164-122.48 186.235-2.856 1.232-9.82 4.945-18.63 1.135-81.008-34.95-125.11-109.916-125.11-187.37v-86.38z" fill="#ffe773"/><path d="m248.001 178.884v273.75c-5.105 2.208-10.895 2.208-16 0v-273.75z" fill="#fada86"/><path d="m156.897 306.807c.203 26.809-38.248 31.63-44.472 5.552-7.135-29.894-5.534-43.357-5.534-133.475h50.15c-.253 3.565-.151 126.922-.144 127.923z" fill="#ffec8f"/><path d="m242.19 463.781c-3.513.999-4.859-.128-15.982-4.926-62.775-27.082-107.519-82.241-122.149-147.098l-49.738 22.495v82.694c0 4.418-3.582 8-8 8s-8-3.582-8-8v-87.856c0-3.143 1.84-5.994 4.704-7.289l58.045-26.251c-2.758-19.077-2.18-24.653-2.18-97.355h-50.672l-33.317 56.761c-2.239 3.814-7.145 5.083-10.949 2.85-3.81-2.236-5.086-7.139-2.85-10.949l35.636-60.711c1.437-2.447 4.062-3.95 6.899-3.95h55.252v-3.309c0-4.418 3.582-8 8-8h201.658c4.418 0 8 3.582 8 8s-3.582 8-8 8h-193.658v78.381c0 77.642 45.95 147.699 117.112 178.656v-198.054c0-4.418 3.582-8 8-8s8 3.582 8 8c0 222.195.084 210.632-.164 211.839-.582 2.8-2.681 5.224-5.647 6.072zm229.819-204.875c-2.745.001-5.417-1.413-6.907-3.951l-33.317-56.761h-50.671c0 72.075.6 78.027-2.202 97.345l58.067 26.261c2.864 1.295 4.704 4.146 4.704 7.289v87.856c0 4.418-3.582 8-8 8s-8-3.582-8-8v-82.694l-49.773-22.511c-11.52 50.965-41.714 96.471-85.558 126.838-1.39.963-2.977 1.425-4.548 1.425-7.797 0-11.009-10.112-4.562-14.577 52.519-36.375 83.873-96.248 83.873-160.16 0-6.794 0-115.406 0-122.118 0-28.544-23.222-51.766-51.766-51.766-3.145 0-143.549 0-146.692 0-28.543 0-51.766 23.222-51.766 51.766 0 4.418-3.582 8-8 8s-8-3.582-8-8c0-10.182 2.272-19.839 6.312-28.513l-49.903-24.045c-2.768-1.334-4.527-4.135-4.527-7.207v-59.486c0-4.418 3.582-8 8-8s8 3.582 8 8v54.461l46.909 22.604c12.427-15.572 31.548-25.578 52.974-25.578h24.536c0-12.16-1.005-22.069 7.375-33.87l-10.48-12.469c-2.843-3.383-2.406-8.429.977-11.271 3.383-2.843 8.429-2.406 11.271.977l9.917 11.799c11.655-7.191 20.562-5.936 38.559-5.936 7.672 0 14.844 2.176 20.939 5.936l9.917-11.799c2.843-3.383 7.89-3.819 11.271-.977 3.382 2.843 3.819 7.889.977 11.271l-10.48 12.469c8.424 11.863 7.375 21.923 7.375 33.87h24.536c21.426 0 40.547 10.006 52.974 25.578l46.909-22.604v-54.461c0-4.418 3.582-8 8-8s8 3.582 8 8v59.486c0 3.072-1.759 5.873-4.527 7.207l-49.902 24.046c7.945 17.054 6.312 26.88 6.312 67.559h55.252c2.837 0 5.463 1.503 6.899 3.95l35.636 60.711c3.14 5.346-.753 12.05-6.89 12.05zm-199.198-183.523v-10.771c0-13.233-10.766-24-24-24h-17.62c-13.234 0-24 10.767-24 24v10.771z"/></svg>