<?xml version="1.0" encoding="iso-8859-1"?>
<!-- Generator: Adobe Illustrator 19.0.0, SVG Export Plug-In . SVG Version: 6.00 Build 0)  -->
<svg version="1.1" id="Capa_1" xmlns="http://www.w3.org/2000/svg" xmlns:xlink="http://www.w3.org/1999/xlink" x="0px" y="0px"
	 viewBox="0 0 512 512" style="enable-background:new 0 0 512 512;" xml:space="preserve">
<path style="fill:#F97DA3;" d="M233.484,83.586c-22.723-27.492-7.012-71.033,28.481-74.635c1.762-0.178,3.549-0.269,5.363-0.269
	c18.25,0,34.304,9.329,43.698,23.465c9.39-14.141,25.444-23.47,43.694-23.47c1.809,0,3.597,0.091,5.363,0.269
	c35.497,3.601,51.209,47.143,28.481,74.635l-77.542,93.813L233.484,83.586z"/>
<path d="M311.021,186.073c-2.59,0-5.042-1.154-6.691-3.15l-77.533-93.804l0,0c-13.013-15.742-16.223-37.389-8.383-56.494
	c7.502-18.276,23.457-30.351,42.674-32.304c2.065-0.208,4.161-0.312,6.239-0.312c16.631,0,32.295,6.721,43.694,18.397
	C322.416,6.725,338.079,0,354.719,0c2.078,0,4.174,0.104,6.235,0.312c19.235,1.953,35.185,14.028,42.687,32.304
	c7.841,19.105,4.625,40.752-8.392,56.494l-77.538,93.813C316.059,184.919,313.607,186.073,311.021,186.073z M240.174,78.058
	l70.847,85.717l70.851-85.721c8.93-10.795,11.116-25.678,5.71-38.847c-5.025-12.249-15.638-20.337-28.377-21.625
	c-1.475-0.148-2.968-0.226-4.487-0.226c-14.687,0-28.316,7.324-36.465,19.595c-1.605,2.421-4.322,3.879-7.229,3.879
	c-2.907,0-5.619-1.454-7.229-3.875c-8.149-12.266-21.786-19.591-36.465-19.591c-1.519,0-3.016,0.078-4.491,0.226
	c-12.735,1.293-23.339,9.377-28.368,21.625C229.067,52.376,231.249,67.263,240.174,78.058L240.174,78.058z"/>
<polygon style="fill:#8C6B3B;" points="353.852,503.322 154.172,503.322 136.807,329.763 371.212,329.763 "/>
<path d="M353.852,512h-199.68c-4.456,0-8.192-3.376-8.635-7.815l-17.365-173.559c-0.243-2.443,0.555-4.868,2.2-6.686
	s3.983-2.855,6.435-2.855h234.405c2.452,0,4.79,1.037,6.435,2.855c1.644,1.818,2.443,4.248,2.2,6.686l-17.36,173.559
	C362.044,508.624,358.308,512,353.852,512z M162.025,494.644h183.973l15.625-156.203H146.396L162.025,494.644z"/>
<rect x="119.442" y="295.051" style="fill:#997843;" width="269.147" height="34.712"/>
<path d="M388.576,338.441H119.442c-4.79,0-8.678-3.888-8.678-8.678v-34.712c0-4.79,3.888-8.678,8.678-8.678h269.134
	c4.79,0,8.678,3.888,8.678,8.678v34.712C397.254,334.553,393.367,338.441,388.576,338.441z M128.12,321.085h251.778v-17.356H128.12
	V321.085z"/>
<path style="fill:#FFFFFF;" d="M258.35,295.051c0,0-26.047-43.39-17.365-86.78c8.682-43.39,26.047-69.424,26.047-69.424"/>
<path d="M258.355,303.724c-2.946,0-5.814-1.497-7.441-4.209c-1.132-1.892-27.665-46.8-18.432-92.95
	c8.917-44.561,26.585-71.415,27.336-72.535c2.655-3.983,8.044-5.064,12.032-2.404s5.064,8.049,2.408,12.036
	c-0.156,0.234-16.558,25.34-24.758,66.313c-7.897,39.467,16.059,80.21,16.302,80.618c2.452,4.113,1.119,9.442-2.99,11.897
	C261.405,303.325,259.869,303.724,258.355,303.724z"/>
<path style="fill:#FFFFFF;" d="M249.668,269.017c0,0,34.725-69.424,78.136-43.39"/>
<path d="M249.664,277.695c-1.306,0-2.629-0.291-3.875-0.916c-4.287-2.143-6.023-7.359-3.879-11.646
	c0.876-1.749,21.808-42.978,53.409-52.181c12.609-3.671,25.04-1.909,36.951,5.233c4.109,2.465,5.445,7.797,2.981,11.906
	c-2.46,4.109-7.788,5.441-11.902,2.981c-7.706-4.617-15.282-5.753-23.17-3.449c-20.254,5.897-37.719,33.241-42.743,43.281
	C255.912,275.942,252.844,277.695,249.664,277.695z"/>
<path style="fill:#FFFFFF;" d="M240.986,251.661c0,0-43.407-34.712-60.772-26.034"/>
<path d="M240.982,260.339c-1.9,0-3.81-0.625-5.411-1.9c-18.497-14.77-44.188-28.694-51.473-25.049
	c-4.296,2.139-9.498,0.399-11.641-3.883c-2.143-4.287-0.404-9.498,3.883-11.641c20.714-10.366,58.871,18.063,70.07,27.019
	c3.74,2.994,4.348,8.452,1.358,12.193C246.049,259.22,243.529,260.339,240.982,260.339z"/>
<path style="fill:#84D839;" d="M388.576,225.627c0,0-29.023-26.034-43.407-26.034s-26.047,11.655-26.047,26.034
	c0,14.379,11.659,26.034,26.047,26.034C359.553,251.661,388.576,225.627,388.576,225.627z"/>
<path d="M345.169,260.339c-19.148,0-34.725-15.573-34.725-34.712s15.577-34.712,34.725-34.712c16.857,0,43.941,23.535,49.204,28.251
	c1.835,1.644,2.881,3.996,2.881,6.461c0,2.465-1.046,4.812-2.881,6.461C389.11,236.804,362.026,260.339,345.169,260.339z
	 M345.169,208.271c-9.576,0-17.369,7.784-17.369,17.356s7.793,17.356,17.369,17.356c5.532,0,18.458-8.157,29.965-17.356
	C363.627,216.428,350.701,208.271,345.169,208.271z"/>
<path style="fill:#84D839;" d="M112.808,205.212c0,0,18.506,34.308,32.043,39.172c13.538,4.86,28.455-2.165,33.319-15.698
	c4.864-13.533-2.165-28.442-15.703-33.302C148.93,190.52,112.808,205.212,112.808,205.212z"/>
<path d="M153.62,254.598c-3.888,0-7.836-0.655-11.698-2.044c-15.863-5.697-33.397-37.003-36.751-43.221
	c-1.172-2.169-1.362-4.734-0.529-7.055c0.833-2.321,2.616-4.174,4.899-5.103c6.548-2.664,40.001-15.646,55.864-9.958
	c8.726,3.133,15.716,9.481,19.669,17.864c3.957,8.387,4.404,17.812,1.267,26.542C181.255,245.769,167.865,254.598,153.62,254.598z
	 M125.46,209.759c7.719,12.548,17.117,24.589,22.328,26.459c9.012,3.241,18.983-1.462,22.22-10.466
	c1.571-4.365,1.345-9.077-0.633-13.269s-5.467-7.363-9.836-8.934C154.471,201.724,139.467,204.991,125.46,209.759z"/>
<g>
</g>
<g>
</g>
<g>
</g>
<g>
</g>
<g>
</g>
<g>
</g>
<g>
</g>
<g>
</g>
<g>
</g>
<g>
</g>
<g>
</g>
<g>
</g>
<g>
</g>
<g>
</g>
<g>
</g>
</svg>
